<?xml version="1.0" ?>
<!-- Uploaded to: SVG Repo, www.svgrepo.com, Generator: SVG Repo Mixer Tools -->
<svg fill="#000000" width="800px" height="800px" viewBox="0 0 64 64" xmlns="http://www.w3.org/2000/svg">
<g data-name="Magic Mirror" id="Magic_Mirror">
<path d="M53.5,34.9a3.36,3.36,0,0,0-2-3,3.15,3.15,0,0,0,.57-1.8,3.5,3.5,0,0,0-3.33-3.38c-2-6.3-6.34-11.09-11.66-13v-1.6a5.12,5.12,0,0,0-10.23,0v1.6c-5.32,1.92-9.6,6.71-11.65,13a3.5,3.5,0,0,0-3.37,3.38,3.15,3.15,0,0,0,.57,1.8,3.28,3.28,0,0,0,0,6,3.15,3.15,0,0,0-.57,1.8,3.5,3.5,0,0,0,3.37,3.38C18,51.41,24.61,57,32,57s14-5.59,16.75-13.92a3.5,3.5,0,0,0,3.37-3.38,3.15,3.15,0,0,0-.57-1.8A3.37,3.37,0,0,0,53.5,34.9Zm-3.62,1.4H42a1.42,1.42,0,1,1,0-2.8h7.87a1.41,1.41,0,1,1,0,2.8ZM41.5,42.58c-2,4.37-5.6,7-9.5,7.05S24.52,47,22.5,42.58a3.34,3.34,0,0,0,1.73-2.88,3.22,3.22,0,0,0-.56-1.8,3.28,3.28,0,0,0,0-6,3.22,3.22,0,0,0,.56-1.8,3.37,3.37,0,0,0-1.73-2.89c2-4.36,5.6-7,9.5-7s7.49,2.68,9.52,7a3.37,3.37,0,0,0-1.75,2.9,3.22,3.22,0,0,0,.56,1.8,3.28,3.28,0,0,0,0,6,3.22,3.22,0,0,0-.56,1.8A3.36,3.36,0,0,0,41.5,42.58ZM14.12,36.3a1.41,1.41,0,1,1,0-2.8H22a1.42,1.42,0,1,1,0,2.8Zm36-6.2a1.53,1.53,0,0,1-1.63,1.4H43.4a1.42,1.42,0,1,1,0-2.8h5.09A1.52,1.52,0,0,1,50.12,30.1ZM28.2,15.38a1,1,0,0,0,.7-1V12.11a3.12,3.12,0,0,1,6.23,0v2.32a1,1,0,0,0,.7,1c4.84,1.49,8.82,5.68,10.84,11.32H43.48c-2.33-5.28-6.67-8.54-11.48-8.54s-9.13,3.27-11.45,8.54H17.36C19.38,21.06,23.36,16.87,28.2,15.38ZM15.51,28.7H20.6a1.42,1.42,0,1,1,0,2.8H15.51a1.42,1.42,0,1,1,0-2.8Zm-1.63,11a1.53,1.53,0,0,1,1.63-1.4H20.6a1.42,1.42,0,1,1,0,2.8H15.51A1.53,1.53,0,0,1,13.88,39.7ZM32,55c-6.32,0-12.07-4.75-14.64-11.9h3.19c2.32,5.27,6.65,8.52,11.45,8.53s9.13-3.27,11.45-8.53h3.19C44.07,50.25,38.32,55,32,55ZM48.49,41.1H43.4a1.42,1.42,0,1,1,0-2.8h5.09a1.42,1.42,0,1,1,0,2.8Z"/>
<path d="M32,15.62a1,1,0,0,0,1-1V11.84a1,1,0,1,0-2,0v2.78A1,1,0,0,0,32,15.62Z"/>
</g>
</svg>