<?xml version="1.0" encoding="iso-8859-1"?>
<!-- Uploaded to: SVG Repo, www.svgrepo.com, Generator: SVG Repo Mixer Tools -->
<svg fill="#000000" height="800px" width="800px" version="1.1" id="Layer_1" xmlns="http://www.w3.org/2000/svg" xmlns:xlink="http://www.w3.org/1999/xlink" 
	 viewBox="0 0 511.582 511.582" xml:space="preserve">
<g>
	<g>
		<g>
			<path d="M80.858,59.316h8.533c4.719,0,8.533-3.814,8.533-8.533s-3.814-8.533-8.533-8.533h-8.533
				c-4.719,0-8.533,3.814-8.533,8.533S76.139,59.316,80.858,59.316z"/>
			<path d="M46.724,59.316h8.533c4.719,0,8.533-3.814,8.533-8.533s-3.814-8.533-8.533-8.533h-8.533
				c-4.719,0-8.533,3.814-8.533,8.533S42.005,59.316,46.724,59.316z"/>
			<path d="M114.991,59.316h8.533c4.719,0,8.533-3.814,8.533-8.533s-3.814-8.533-8.533-8.533h-8.533
				c-4.719,0-8.533,3.814-8.533,8.533S110.272,59.316,114.991,59.316z"/>
			<path d="M21.124,42.25h-8.533c-4.719,0-8.533,3.814-8.533,8.533s3.814,8.533,8.533,8.533h8.533c4.719,0,8.533-3.814,8.533-8.533
				S25.843,42.25,21.124,42.25z"/>
			<path d="M80.024,24.258l8.337,1.852c0.623,0.128,1.237,0.196,1.852,0.196c3.908,0,7.441-2.705,8.329-6.682
				c1.015-4.599-1.886-9.156-6.485-10.18l-8.329-1.852c-4.565-0.973-9.165,1.886-10.189,6.485
				C72.523,18.677,75.425,23.234,80.024,24.258z"/>
			<path d="M113.341,31.667l8.337,1.852c0.623,0.128,1.237,0.196,1.852,0.196c3.908,0,7.441-2.705,8.328-6.682
				c1.016-4.599-1.886-9.156-6.485-10.18l-8.329-1.852c-4.582-0.947-9.165,1.886-10.189,6.485
				C105.84,26.086,108.741,30.643,113.341,31.667z"/>
			<path d="M58.733,2.041L50.395,0.19c-4.557-0.973-9.156,1.886-10.18,6.485c-1.015,4.599,1.886,9.156,6.485,10.18l8.329,1.852
				c0.631,0.136,1.246,0.205,1.86,0.205c3.908,0,7.441-2.714,8.329-6.69C66.233,7.622,63.332,3.066,58.733,2.041z"/>
			<path d="M88.358,75.458l-8.337,1.852c-4.599,1.024-7.492,5.581-6.477,10.18c0.879,3.977,4.403,6.682,8.32,6.682
				c0.623,0,1.237-0.06,1.86-0.196l8.337-1.852c4.599-1.024,7.492-5.581,6.477-10.18C97.514,77.344,92.966,74.502,88.358,75.458z"/>
			<path d="M121.674,68.049l-8.337,1.852c-4.599,1.024-7.492,5.581-6.477,10.18c0.879,3.977,4.403,6.682,8.32,6.682
				c0.623,0,1.237-0.06,1.86-0.196l8.337-1.852c4.599-1.024,7.492-5.581,6.477-10.18C130.839,69.935,126.274,67.085,121.674,68.049z
				"/>
			<path d="M55.033,82.858l-8.337,1.852c-4.599,1.024-7.492,5.581-6.477,10.18c0.879,3.977,4.403,6.682,8.32,6.682
				c0.623,0,1.237-0.06,1.86-0.196l8.337-1.852c4.599-1.024,7.492-5.581,6.477-10.18C64.197,84.744,59.64,81.885,55.033,82.858z"/>
			<path d="M260.533,272.7h-0.017c-20.309,0.008-39.509,8.286-54.067,23.296c-0.512,0.538-1.101,1.007-1.724,1.382
				c-17.579,17.254-40.405,26.726-64.563,26.735h-0.043c-2.313,0-4.591-0.171-6.878-0.341c-0.393,0.017-0.785,0.077-1.186,0.077
				v-0.137c-21.478-1.92-41.455-11.435-56.926-27.366l-2.244-2.253c1.058,13.935,3.627,27.716,7.706,41.139l43.273,142.165
				c6.229,20.454,24.764,34.185,46.14,34.185h60.646c21.376,0,39.91-13.73,46.131-34.185l43.281-142.165
				c2.765-9.105,4.83-18.381,6.212-27.75l-12.672-11.878C299.163,280.73,280.416,272.7,260.533,272.7z"/>
			<path d="M464.858,197.207V144.65c0-56.465-45.935-102.4-102.4-102.4h-128V25.183c0-4.719-3.814-8.533-8.533-8.533h-51.2
				c-4.719,0-8.533,3.814-8.533,8.533V67.85h-1.246c-8.721,0-15.821,7.1-15.821,15.821v41.37c-1.357,0.828-2.714,1.621-4.045,2.517
				c-33.186,22.426-72.755,64.316-72.755,136.559v5.257l14.976,15.01c12.433,12.817,28.322,20.557,45.406,22.289
				c27.264-1.126,57.199-73.54,58.923-178.227c5.692-0.614,11.418-0.614,17.118-0.017c-1.161,68.429-14.942,138.146-40.141,172.868
				c9.429-3.951,18.125-9.847,25.591-17.545c0.521-0.538,1.101-0.998,1.724-1.374c17.587-17.263,40.422-26.735,64.589-26.743h0.026
				c24.542,0,47.642,9.873,65.024,27.802l2.534,2.381c0.068-2.065,0.23-4.113,0.23-6.178v-15.522
				c0-72.243-39.569-114.133-72.755-136.559c-1.331-0.896-2.688-1.69-4.045-2.517v-41.37c0-8.721-7.1-15.821-15.821-15.821h-1.246
				v-8.533h128c47.053,0,85.333,38.281,85.333,85.333v52.557c-24.832,7.364-42.667,46.447-42.667,96.777
				c0,55.945,22.008,98.133,51.2,98.133c29.193,0,51.2-42.189,51.2-98.133C507.524,243.653,489.69,204.571,464.858,197.207z
				 M183.258,59.316h8.533c4.719,0,8.533-3.814,8.533-8.533s-3.814-8.533-8.533-8.533h-8.533v-8.533h34.133V67.85h-34.133V59.316z
				 M234.458,116.729c-22.05-8.192-46.217-8.192-68.267,0V84.916h8.533h51.2h8.533V116.729z"/>
		</g>
	</g>
</g>
</svg>