<?xml version="1.0" encoding="utf-8"?><!-- Uploaded to: SVG Repo, www.svgrepo.com, Generator: SVG Repo Mixer Tools -->
<svg fill="#000000" width="800px" height="800px" viewBox="0 0 1024 1024" xmlns="http://www.w3.org/2000/svg"><path d="M952.193 788.48c17.065 0 30.843-13.687 30.843-30.505V530.842c0-9.214-7.999-22.306-16.191-26.503L465.268 247.278c-12.162-6.226-35.087-11.758-48.729-11.758H71.809c-17.074 0-30.853 13.686-30.853 30.505v491.95c0 16.819 13.779 30.505 30.853 30.505h880.384zm0 40.96H71.809c-39.634 0-71.813-31.962-71.813-71.465v-491.95c0-39.503 32.179-71.465 71.813-71.465h344.73c20.135 0 49.457 7.076 67.402 16.263l501.582 257.063c21.873 11.204 38.473 38.375 38.473 62.956v227.133c0 39.501-32.177 71.465-71.803 71.465z"/><path d="M612.264 304.357L493.675 422.148c-8.025 7.971-8.069 20.938-.098 28.963s20.938 8.069 28.963.098l118.589-117.791c8.025-7.971 8.069-20.938.098-28.963s-20.938-8.069-28.963-.098zm119.587 71.27L625.222 481.539c-8.025 7.971-8.069 20.938-.098 28.963s20.938 8.069 28.963.098l106.629-105.912c8.025-7.971 8.069-20.938.098-28.963s-20.938-8.069-28.963-.098zm130.552 57.411L762.246 532.52c-8.025 7.971-8.069 20.938-.098 28.963s20.938 8.069 28.963.098l100.157-99.482c8.025-7.971 8.069-20.938.098-28.963s-20.938-8.069-28.963-.098zM38.418 689.869h947.159c11.311 0 20.48-9.169 20.48-20.48s-9.169-20.48-20.48-20.48H38.418c-11.311 0-20.48 9.169-20.48 20.48s9.169 20.48 20.48 20.48zm220.717-189.027c0-37.226-30.439-67.461-68.055-67.461-37.625 0-68.065 30.233-68.065 67.461s30.44 67.461 68.065 67.461c37.616 0 68.055-30.235 68.055-67.461zm40.96 0c0 59.91-48.839 108.421-109.015 108.421-60.184 0-109.025-48.509-109.025-108.421s48.841-108.421 109.025-108.421c60.176 0 109.015 48.511 109.015 108.421z"/></svg>